<svg xmlns="http://www.w3.org/2000/svg" xmlns:xlink="http://www.w3.org/1999/xlink" width="570" height="211" viewBox="0 0 570 211">
  <defs>
    <style>
      .cls-1 {
        fill: #fff;
        stroke: #000;
        stroke-linejoin: round;
        stroke-width: 1px;
        fill-rule: evenodd;
        filter: url(#filter);
      }
    </style>
    <filter id="filter" x="155" y="0" width="252" height="211" filterUnits="userSpaceOnUse">
      <feFlood result="flood" flood-color="#fff"/>
      <feComposite result="composite" operator="in" in2="SourceGraphic"/>
      <feBlend result="blend" in2="SourceGraphic"/>
    </filter>
  </defs>
  <g style="fill: #fff; filter: url(#filter)">
    <path id="Elephant_1" data-name="Elephant 1" class="cls-1" d="M345.217,3.079c-21.5-.439-28.912,14.768-46.83,18.553h-16.7l-40.722,5.43-18.325-.9C211.666,28.687,204,36.683,195.768,42.448,173.4,58.121,153.246,72.8,159.933,118.921c1.08,7.45,2.158,15.717,3.258,22.173,2.243,13.159-6,20.447-3.665,31.223l1.629,0.905,2.85-1.81c4.994-19.946,2.927-49.733,6.516-71.5q0.2,0.451.407,0.9c4.074,11.225-2.651,22.8-.407,34.843,1.143,6.134,4.45,11.534,2.443,19.006-2.954,11-9.786,31.94-3.665,46.155,5.031,11.683,33.422,4.738,38.686-1.81-0.328-10.819-9.484-10.672-10.588-20.362,3.524-10.562,7.972-25.712,15.881-31.676-0.952,8.512-3.254,35.43,1.222,41.178,5.652,7.259,33.127,4.113,36.65-2.715,3.775-6.118-8.7-11.758-9.366-18.553,2.2-5.971,2.5-13.562,2.443-22.625,10.107-5.492,20.205-12.99,31.355-17.2l3.258,11.765q-2.646,9.729-5.294,19.457-0.2,10.409-.407,20.816c-1.308,6.866-5.088,11.8-3.258,20.363,6.073,4.727,32.356,14.306,35.836,3.619,3.487-10.711-9.162-13.059-6.923-23.982q3.869-9.5,7.737-19,1.221-8.6,2.443-17.2h0.408c2.166,14.052,10.8,22.506,14.659,33.485,2.155,6.137-1.2,13.579,0,19.459,5.813,4.72,31.6,7.567,35.428-.906,2.458-10.191-8.916-12.8-11.4-19.457q-0.815-7.467-1.629-14.932l-6.108-18.1q-0.815-7.693-1.629-15.385-2.85-8.6-5.7-17.2c-2.5-13.086,5.458-29.123,11-34.389,2.668,7.488,22.461,11.292,28.912,16.29,3.752,2.907,3.416,9.857,4.887,15.386q4.071,13.8,8.144,27.6,2.24,4.976,4.479,9.954c1.107,6.528-2.072,12.373-5.293,14.481h-0.408c-0.494-4.658,1.416-6.372-1.221-10.408-6.934-2.363-11.626,1.984-15.882,6.335q0.2,1.582.407,3.167c1.529,2.476,4.167,2.3,7.331,1.811,1.357,16.141,22.374,11.375,26.468,1.357,4.8-11.743-3.218-24.63-1.221-38.916,3.185-22.784-2.629-37.809-7.737-53.4l-5.7-26.7c-4.285-11.6-23.8-33.751-34.206-38.011Z" style="stroke: inherit; filter: none; fill: inherit"/>
  </g>
  <use xlink:href="#Elephant_1" style="stroke: #000; filter: none; fill: none"/>
</svg>
